<svg width="127" height="20" viewBox="0 0 127 20" fill="none" xmlns="http://www.w3.org/2000/svg">
<path d="M14.9208 5.25078H15.6501L17.7014 3.19009L17.8056 2.31547C14.0129 -1.07334 8.16884 -0.689599 4.83007 3.12032C3.88996 4.16935 3.23014 5.46258 2.84814 6.82309C3.09123 6.71844 3.33432 6.71844 3.57741 6.78821L7.68266 6.1254C7.68266 6.1254 7.89102 5.77654 7.99521 5.81143C9.77373 3.78313 12.8347 3.53893 14.9208 5.25078Z" fill="#EA4335"/>
<path d="M20.6257 6.82305C20.1395 5.07632 19.1994 3.504 17.8425 2.31543L14.9552 5.21585C16.1731 6.19512 16.8677 7.69766 16.8329 9.26996V9.79324C18.2592 9.79324 19.373 10.9469 19.373 12.3448C19.373 13.7776 18.2245 14.8964 16.8329 14.8964H11.7206L11.1997 15.4197V18.4945L11.7206 19.0178H16.8329C20.519 19.0527 23.513 16.0825 23.5477 12.3797C23.5477 10.1795 22.4687 8.08139 20.6257 6.82305Z" fill="#4285F4"/>
<path d="M6.60845 19.0179H11.7208V14.894H6.60845C6.26118 14.894 5.87918 14.8242 5.56415 14.6498L4.83488 14.8591L2.7835 16.9198L2.60986 17.6524C3.75586 18.5295 5.14743 19.0179 6.60845 19.0179Z" fill="#34A853"/>
<path d="M6.60839 5.66943C2.92235 5.70432 -0.0344244 8.7094 0.000302795 12.3798C0.000302795 14.4405 0.975144 16.3641 2.6098 17.6225L5.56657 14.6523C4.27918 14.0592 3.72355 12.5567 4.27918 11.2635C4.83482 9.97023 6.36529 9.41207 7.65268 9.97023C8.20831 10.2144 8.66225 10.6679 8.94006 11.2635L11.8968 8.29327C10.6417 6.6487 8.6945 5.66943 6.60839 5.66943Z" fill="#FBBC05"/>
<path d="M37.1485 16.1548C35.3749 16.1897 33.6708 15.4571 32.4182 14.1988C31.1308 12.9753 30.4015 11.2635 30.4362 9.48186C30.4015 7.70025 31.1308 5.9884 32.4182 4.76494C33.6708 3.47171 35.3749 2.77402 37.1485 2.77402C38.8526 2.73913 40.4873 3.40194 41.7052 4.6254L40.4178 5.91614C39.5472 5.07641 38.3664 4.58802 37.1485 4.62291C35.8611 4.62291 34.6432 5.14618 33.775 6.05568C32.8696 6.96517 32.3834 8.18614 32.3834 9.47937C32.3834 10.7377 32.8696 11.9612 33.775 12.8682C35.618 14.7196 38.6095 14.7545 40.4898 12.9379C41.0454 12.31 41.3951 11.5401 41.4646 10.7003H37.151V8.84895H43.2382C43.3076 9.23268 43.3076 9.58153 43.3076 9.96775C43.3771 11.5401 42.8214 13.0775 41.7424 14.2312C40.5592 15.5244 38.8873 16.1897 37.1485 16.1548ZM51.3073 14.9314C49.6032 16.5734 46.9242 16.5734 45.2201 14.9314C44.3842 14.1265 43.9327 13.0102 43.9674 11.8565C43.9327 10.7028 44.3842 9.58403 45.2201 8.78168C46.9242 7.1396 49.6032 7.1396 51.3073 8.78168C52.1432 9.58652 52.5947 10.7028 52.5599 11.8565C52.5947 13.0077 52.1407 14.1265 51.3073 14.9314ZM46.5769 13.7079C47.4476 14.6523 48.9433 14.6872 49.881 13.8126C49.9157 13.7777 49.9504 13.7428 49.9852 13.7079C50.4713 13.2195 50.7144 12.5542 50.7144 11.8565C50.7492 11.1588 50.4713 10.4935 49.9852 10.0051C49.0798 9.06076 47.584 9.02587 46.6464 9.93537C46.6117 9.97025 46.6117 9.97025 46.5769 10.0051C46.0908 10.4935 45.8477 11.1937 45.8477 11.8565C45.8105 12.5542 46.0883 13.2195 46.5769 13.7079ZM60.6638 14.9314C58.9596 16.5734 56.2807 16.5734 54.5766 14.9314C53.7407 14.1265 53.2892 13.0102 53.3239 11.8565C53.2892 10.7028 53.7407 9.58403 54.5766 8.78168C56.2807 7.1396 58.9596 7.1396 60.6638 8.78168C61.4997 9.58652 61.9511 10.7028 61.9164 11.8565C61.9164 13.0077 61.4997 14.1265 60.6638 14.9314ZM55.9334 13.7079C56.8041 14.6523 58.2998 14.6872 59.2375 13.8126C59.2722 13.7777 59.3069 13.7428 59.3416 13.7079C59.8278 13.2195 60.0709 12.5542 60.0709 11.8565C60.1056 11.1588 59.8278 10.4935 59.3416 10.0051C58.4363 9.06076 56.9405 9.02587 56.0029 9.93537C55.9681 9.97025 55.9681 9.97025 55.9334 10.0051C55.4472 10.4935 55.2042 11.1937 55.2042 11.8565C55.1669 12.5542 55.4472 13.2195 55.9334 13.7079ZM66.7857 19.9971C65.915 20.032 65.0815 19.7529 64.3845 19.2272C63.7594 18.7737 63.3055 18.1433 62.993 17.4456L64.6276 16.7479C64.8013 17.1665 65.0791 17.5527 65.4288 17.8318C65.8108 18.1458 66.2995 18.2853 66.7857 18.2853C67.4107 18.3202 68.0383 18.076 68.455 17.6225C68.8718 17.0992 69.1149 16.4339 69.0454 15.7362V15.1083H68.976C68.4203 15.7711 67.5844 16.1224 66.7137 16.0876C65.6347 16.0876 64.5929 15.634 63.8264 14.8292C63.0252 14.0244 62.5738 12.9429 62.6085 11.8241C62.5738 10.6704 63.0252 9.58652 63.8264 8.78417C64.5557 7.97932 65.6 7.52582 66.7137 7.52582C67.1652 7.52582 67.6191 7.63047 68.0358 7.8049C68.3831 7.94444 68.6957 8.18863 68.976 8.50259H69.0454V7.8049H70.819V15.492C70.9231 16.7155 70.5064 17.9389 69.6705 18.8459C68.9437 19.6134 67.8994 20.032 66.7857 19.9971ZM66.9246 14.4405C67.5497 14.4405 68.1425 14.1963 68.5592 13.7079C69.0107 13.1846 69.219 12.5542 69.219 11.8565C69.2538 11.1588 69.0107 10.4935 68.5592 9.97025C68.1425 9.51675 67.5497 9.23767 66.9246 9.23767C66.2995 9.23767 65.6719 9.48186 65.2552 9.97025C64.769 10.4586 64.5259 11.1588 64.5259 11.8216C64.5259 12.5193 64.769 13.1846 65.2552 13.673C65.6719 14.1963 66.2995 14.4754 66.9246 14.4405ZM74.0213 3.25991V15.8733H72.1436V3.25991H74.0213ZM79.1709 16.1548C78.0224 16.1897 76.9434 15.7362 76.1446 14.9314C75.3434 14.1265 74.892 13.0102 74.9267 11.8914C74.892 10.7377 75.3087 9.61891 76.1099 8.81656C76.8392 8.01172 77.8835 7.5931 78.9972 7.62799C79.4834 7.62799 79.9721 7.73264 80.4235 7.90706C80.8402 8.08149 81.19 8.32568 81.5373 8.63964C81.8151 8.91872 82.0582 9.1978 82.2665 9.51425C82.4402 9.79333 82.5791 10.0724 82.6833 10.354L82.8916 10.8424L77.1517 13.2195C77.499 14.0244 78.3349 14.5476 79.2031 14.5128C80.0738 14.5128 80.8725 14.0592 81.2892 13.3242L82.7155 14.3034C82.3335 14.8267 81.8796 15.2827 81.3239 15.6316C80.7013 15.943 79.9349 16.1548 79.1709 16.1548ZM76.7697 11.717L80.5971 10.1098C80.493 9.83071 80.2846 9.58652 80.0068 9.44698C79.6942 9.27255 79.3817 9.20278 79.0319 9.20278C78.4416 9.20278 77.8835 9.44698 77.5015 9.90048C76.9781 10.3889 76.735 11.0517 76.7697 11.717Z" fill="#5F6368"/>
<path d="M92.667 16.1547C89.3977 16.2245 86.7188 13.6032 86.6493 10.319C86.6493 10.2492 86.6493 10.1446 86.6493 10.0748C86.5799 6.79067 89.1546 4.06467 92.424 3.9949C92.4934 3.9949 92.5976 3.9949 92.667 3.9949C94.3017 3.96002 95.8669 4.65771 96.9112 5.88117L95.8669 6.89532C95.1004 5.91606 93.885 5.3579 92.667 5.42767C91.4838 5.39278 90.3006 5.84629 89.4672 6.7209C88.5965 7.59551 88.1103 8.81648 88.1798 10.0748C88.1451 11.3332 88.5965 12.5566 89.4672 13.4287C90.3031 14.2685 91.4491 14.7569 92.667 14.722C94.0586 14.722 95.3807 14.1289 96.2489 13.045L97.2932 14.0941C96.7376 14.7569 96.0753 15.2477 95.3113 15.6315C94.4753 15.9778 93.57 16.1547 92.667 16.1547Z" fill="#5F6368"/>
<path d="M100.076 15.8731H98.5806V4.23657H100.076V15.8731Z" fill="#5F6368"/>
<path d="M102.51 8.8863C104.145 7.27911 106.754 7.27911 108.354 8.8863C109.12 9.69114 109.537 10.8075 109.502 11.9263C109.537 13.0451 109.12 14.1265 108.354 14.9662C106.719 16.5734 104.11 16.5734 102.51 14.9662C101.743 14.1614 101.327 13.0451 101.361 11.9263C101.329 10.7726 101.711 9.68865 102.51 8.8863ZM103.589 13.987C104.529 15.0011 106.129 15.036 107.136 14.0916C107.171 14.0567 107.205 14.0218 107.24 13.987C107.761 13.4288 108.041 12.6588 108.007 11.8914C108.041 11.1214 107.764 10.354 107.24 9.7958C106.3 8.78165 104.7 8.74676 103.693 9.69114C103.658 9.72603 103.624 9.76092 103.589 9.7958C103.068 10.354 102.788 11.1239 102.822 11.8914C102.79 12.6588 103.068 13.4288 103.589 13.987Z" fill="#5F6368"/>
<path d="M117.748 15.8732H116.287V14.7544H116.252C116.009 15.173 115.627 15.5244 115.208 15.7337C114.756 15.9779 114.268 16.1174 113.747 16.1174C112.911 16.1872 112.077 15.8383 111.485 15.2079C110.929 14.5102 110.683 13.6356 110.718 12.761V7.86963H112.214V12.4819C112.214 13.9844 112.874 14.7195 114.161 14.7195C114.751 14.7544 115.309 14.4753 115.657 13.9869C116.039 13.4985 116.247 12.903 116.247 12.2751V7.907H117.743V15.8732H117.748Z" fill="#5F6368"/>
<path d="M122.791 16.1548C121.781 16.1548 120.809 15.7013 120.147 14.9314C119.417 14.0916 118.998 13.0102 119.033 11.9263C118.998 10.8075 119.415 9.72605 120.147 8.9212C120.806 8.15125 121.781 7.69774 122.791 7.69774C123.346 7.69774 123.905 7.83728 124.425 8.08147C124.877 8.29078 125.227 8.63963 125.504 9.06074H125.574L125.504 7.94194V4.27405H127V15.9106H125.574V14.7918H125.504C125.227 15.2104 124.879 15.5618 124.425 15.7711C123.905 16.0128 123.346 16.1548 122.791 16.1548ZM123.034 14.7918C123.728 14.7918 124.356 14.5127 124.807 14.0219C125.328 13.4288 125.574 12.6937 125.537 11.9263C125.571 11.1563 125.328 10.3889 124.807 9.8307C123.902 8.85143 122.372 8.74678 121.364 9.65628C121.295 9.69116 121.26 9.76093 121.191 9.8307C120.67 10.3889 120.424 11.1588 120.462 11.9263C120.427 12.6962 120.67 13.4288 121.191 14.0219C121.677 14.5102 122.339 14.7918 123.034 14.7918Z" fill="#5F6368"/>
</svg>
