<svg width="260" height="97" viewBox="0 0 260 97" fill="none" xmlns="http://www.w3.org/2000/svg">
<path fill-rule="evenodd" clip-rule="evenodd" d="M19.5159 0.113152H101.219C104.095 0.0858136 106.771 1.61963 108.261 4.14846C109.75 6.67728 109.831 9.82611 108.475 12.4327L67.5034 91.6232C66.0462 94.4524 63.1872 96.2218 60.0731 96.2218C56.9591 96.2218 54.1001 94.4524 52.6428 91.6232L43.6804 74.1969L36.5446 88.0344C35.6012 89.8684 33.7485 91.0157 31.7304 91.0157C29.7123 91.0157 27.8597 89.8684 26.9163 88.0344L0.626426 36.9664C-0.263127 35.2482 -0.201704 33.1743 0.787888 31.5149C1.77748 29.8555 3.54745 28.8584 5.44055 28.8938H20.2585L12.0813 12.8889C10.707 10.1979 10.7945 6.96544 12.3123 4.35715C13.8302 1.74887 16.5594 0.140939 19.5159 0.113152ZM46.7874 68.1249L64.7123 33.5706C65.2262 32.5812 65.1929 31.3862 64.6245 30.4287C64.0562 29.4712 63.0377 28.8941 61.9467 28.9113H25.7384C24.5776 28.9099 23.5012 29.5349 22.9032 30.5577C22.3051 31.5805 22.2733 32.8509 22.8192 33.9041L40.5136 68.1249C41.1295 69.3184 42.3363 70.0647 43.6505 70.0647C44.9647 70.0647 46.1715 69.3184 46.7874 68.1249ZM217.817 69.8096C214.142 70.35 210.432 70.5964 206.72 70.5467C199.644 70.5467 193.396 68.6865 193.396 58.429V39.7128C193.396 29.4553 199.704 27.6566 206.771 27.6566C210.455 27.6047 214.136 27.8482 217.782 28.3849C218.551 28.4989 218.875 28.7797 218.875 29.508V34.7727C218.871 35.3911 218.384 35.8911 217.782 35.8959H206.259C203.699 35.8959 202.751 36.7733 202.751 39.7304V44.8547H217.381C217.983 44.8595 218.469 45.3596 218.474 45.9779V51.3304C218.47 51.9487 217.983 52.4487 217.381 52.4535H202.751V58.429C202.751 61.3597 203.681 62.2635 206.259 62.2635H217.817C218.418 62.2682 218.904 62.7683 218.909 63.3866V68.6514C218.918 69.3534 218.585 69.6956 217.817 69.8096ZM187.925 36.1065H178.604V68.9059C178.599 69.5242 178.112 70.0242 177.511 70.029H170.332C169.731 70.0243 169.245 69.5242 169.24 68.9059V36.1065H159.851C159.566 36.1184 159.29 36.0112 159.084 35.8094C158.878 35.6076 158.76 35.3285 158.758 35.036V29.2272C158.76 28.9347 158.878 28.6556 159.084 28.4538C159.29 28.252 159.566 28.1448 159.851 28.1567H187.907C188.513 28.1269 189.028 28.6052 189.06 29.2272V35.036C189.028 35.6508 188.523 36.1265 187.925 36.1065ZM250.465 70.029H259.18C259.616 70.029 259.897 69.8096 260 69.4235C259.989 69.2259 259.934 69.0335 259.838 68.8619L247.401 48.6804L259.351 29.2272C259.413 29.1233 259.451 29.0062 259.462 28.885C259.421 28.4407 259.041 28.1124 258.608 28.1479H250.491C249.884 28.2368 249.364 28.6415 249.117 29.2184L242.288 40.6254L235.272 29.2184C234.939 28.7095 234.504 28.1479 233.898 28.1479H225.072C224.639 28.1124 224.259 28.4407 224.218 28.885C224.229 29.0062 224.267 29.1233 224.329 29.2272L236.33 48.5663L224.44 68.9146C224.378 69.0374 224.34 69.1716 224.329 69.3095C224.328 69.5308 224.423 69.7411 224.588 69.8835C224.753 70.0258 224.971 70.0856 225.183 70.0465H233.275C233.881 70.0465 234.265 69.599 234.649 68.9234L241.477 56.8671L249.04 69.1515C249.287 69.7242 249.858 70.0754 250.465 70.029ZM145.63 28.2708C145.221 28.2614 144.862 28.5523 144.777 28.9639L136.813 59.2538C136.702 59.8768 136.54 60.1313 136.045 60.1313C135.549 60.1313 135.387 59.9031 135.276 59.2538L127.338 28.9639C127.252 28.5523 126.894 28.2614 126.485 28.2708H118.649C118.386 28.2641 118.134 28.3825 117.968 28.5917C117.801 28.8009 117.737 29.0774 117.795 29.3413C117.795 29.3413 127.517 64.0623 127.62 64.4396C128.917 68.5812 132.067 70.5818 136.07 70.5818C139.911 70.7234 143.37 68.2091 144.52 64.4396C144.674 63.9657 154.183 29.3413 154.183 29.3413C154.238 29.0787 154.173 28.8048 154.006 28.5978C153.84 28.3908 153.59 28.2735 153.329 28.2795L145.63 28.2708Z" fill="white"/>
</svg>
