<?xml version="1.0" standalone="no"?>
<!DOCTYPE svg PUBLIC "-//W3C//DTD SVG 20010904//EN"
 "http://www.w3.org/TR/2001/REC-SVG-20010904/DTD/svg10.dtd">
<svg version="1.0" xmlns="http://www.w3.org/2000/svg"
 width="848.000000pt" height="125.000000pt" viewBox="0 0 848.000000 125.000000"
 preserveAspectRatio="xMidYMid meet">

<g transform="translate(0.000000,125.000000) scale(0.100000,-0.100000)"
fill="#000000" stroke="none">
<path d="M3175 625 c0 -347 1 -487 2 -312 2 175 2 459 0 630 -1 172 -2 29 -2
-318z"/>
<path d="M573 969 c-41 -15 -38 -110 4 -121 10 -3 29 -1 42 3 31 12 26 63 -6
67 -13 2 -23 -1 -23 -7 0 -6 5 -11 10 -11 6 0 10 -7 10 -16 0 -9 -7 -14 -17
-12 -13 2 -18 13 -18 38 0 31 3 35 28 38 15 2 27 7 27 11 0 13 -33 19 -57 10z"/>
<path d="M1052 964 c-30 -21 -31 -87 -1 -108 56 -39 109 54 59 104 -24 24 -29
24 -58 4z m48 -54 c0 -33 -3 -40 -20 -40 -17 0 -20 7 -20 40 0 33 3 40 20 40
17 0 20 -7 20 -40z"/>
<path d="M670 909 c0 -43 3 -60 12 -57 7 3 15 15 18 27 l5 23 14 -26 c8 -14
20 -26 28 -26 16 0 17 12 1 28 -9 9 -9 17 2 36 18 34 -1 56 -46 56 l-34 0 0
-61z m60 26 c0 -8 -7 -15 -15 -15 -8 0 -15 7 -15 15 0 8 7 15 15 15 8 0 15 -7
15 -15z"/>
<path d="M790 923 c0 -68 21 -89 68 -72 19 7 22 15 22 64 0 67 -18 74 -22 8
-3 -40 -6 -48 -23 -48 -17 0 -20 8 -23 48 -2 26 -7 47 -13 47 -5 0 -9 -21 -9
-47z"/>
<path d="M920 910 c0 -58 15 -84 22 -38 2 14 11 24 23 26 58 10 49 72 -10 72
l-35 0 0 -60z m60 25 c0 -8 -9 -15 -20 -15 -11 0 -20 7 -20 15 0 8 9 15 20 15
11 0 20 -7 20 -15z"/>
<path d="M6491 879 c-83 -16 -152 -91 -172 -187 -26 -126 14 -257 95 -311 77
-51 263 -36 274 22 2 9 -6 38 -18 63 -17 35 -26 44 -39 38 -36 -16 -92 -16
-117 1 -69 45 -70 183 -1 226 31 19 68 20 113 2 18 -7 58 79 49 107 -10 32
-110 54 -184 39z"/>
<path d="M7790 880 c-117 -22 -184 -118 -184 -265 0 -44 6 -97 13 -119 17 -48
76 -115 118 -133 47 -19 160 -17 203 5 43 21 48 47 20 102 -16 32 -25 40 -38
34 -41 -18 -97 -16 -124 5 -45 36 -55 133 -20 197 21 40 76 51 135 28 18 -6
57 60 57 95 0 38 -101 67 -180 51z"/>
<path d="M3657 874 c-4 -4 -7 -121 -7 -260 l0 -253 35 -7 c19 -3 51 -3 70 0
l34 7 3 87 3 87 55 0 55 0 3 -87 3 -87 34 -7 c19 -3 51 -3 70 0 l35 7 0 253
c0 222 -2 255 -16 260 -22 8 -97 7 -111 -2 -8 -5 -13 -41 -15 -97 l-3 -90 -55
0 -55 0 -5 95 -5 95 -60 3 c-34 2 -64 0 -68 -4z"/>
<path d="M4142 618 l3 -263 141 -3 c140 -3 142 -2 148 20 8 30 8 72 0 92 -5
13 -22 16 -80 16 l-74 0 0 39 0 40 53 3 52 3 0 50 0 50 -52 3 -53 3 0 40 0 39
75 0 75 0 0 65 0 65 -145 0 -145 0 2 -262z"/>
<path d="M4623 868 c-16 -20 -137 -497 -129 -505 9 -9 113 -10 121 -1 3 3 11
28 18 54 l12 49 62 3 61 3 16 -55 c13 -45 21 -57 42 -62 26 -7 111 0 120 9 7
7 -116 488 -129 505 -6 8 -39 12 -97 12 -58 0 -91 -4 -97 -12z m106 -205 c6
-32 14 -68 17 -80 6 -21 3 -23 -35 -23 -26 0 -41 5 -41 13 0 23 34 147 41 147
3 0 12 -26 18 -57z"/>
<path d="M5007 874 c-4 -4 -7 -119 -7 -254 0 -199 3 -250 14 -259 9 -8 55 -11
137 -9 l123 3 9 32 c5 17 6 48 3 67 l-7 36 -64 0 -65 0 -2 193 -3 192 -65 3
c-36 2 -69 0 -73 -4z"/>
<path d="M5284 857 c-3 -13 -4 -41 -2 -63 3 -39 3 -39 53 -44 l50 -5 5 -195 5
-195 70 0 70 0 3 198 2 197 49 0 c48 0 49 1 52 33 2 17 3 47 1 65 l-3 32 -174
0 -175 0 -6 -23z"/>
<path d="M5703 874 c-10 -4 -13 -66 -13 -259 l0 -253 23 -6 c28 -7 76 -7 105
0 21 6 22 11 22 95 l0 89 55 0 55 0 0 -89 c0 -84 1 -89 23 -95 28 -7 76 -7
105 0 l22 6 0 253 c0 283 5 265 -75 265 -75 0 -75 -1 -75 -107 l0 -94 -52 3
-53 3 -5 95 -5 95 -60 2 c-33 1 -66 -1 -72 -3z"/>
<path d="M6763 874 c-10 -4 -13 -66 -13 -259 l0 -253 23 -6 c28 -7 76 -7 105
0 21 6 22 11 22 95 l0 89 55 0 55 0 0 -89 c0 -84 1 -89 23 -95 28 -7 76 -7
105 0 l22 6 0 253 c0 283 5 265 -75 265 -75 0 -75 -1 -75 -107 l0 -94 -52 3
-53 3 -5 95 -5 95 -60 2 c-33 1 -66 -1 -72 -3z"/>
<path d="M7245 867 c-3 -7 -4 -125 -3 -262 l3 -250 145 0 144 0 7 31 c3 17 4
45 1 63 l-4 31 -74 0 -74 0 0 40 0 40 50 0 c44 0 50 3 56 24 3 13 4 37 2 52
-3 27 -6 29 -55 32 l-53 3 0 40 0 39 75 0 75 0 0 65 0 65 -145 0 c-108 0 -147
-3 -150 -13z"/>
<path d="M8047 873 c-4 -3 -7 -120 -7 -258 l0 -252 31 -7 c40 -8 83 -8 103 0
13 5 16 23 16 95 0 49 4 89 9 89 5 0 30 -39 56 -87 26 -49 53 -91 59 -95 19
-13 56 -9 95 11 66 34 66 37 -11 141 -38 52 -72 100 -75 107 -2 6 25 65 61
130 74 134 75 131 -30 132 l-61 1 -51 -102 -51 -103 0 103 -1 102 -68 0 c-38
0 -72 -3 -75 -7z"/>
<path d="M385 643 c-30 -8 -45 -23 -45 -47 0 -28 18 -46 45 -46 19 0 20 -7 23
-113 4 -150 11 -179 44 -191 42 -15 58 6 58 75 l0 59 38 0 c35 -1 40 -5 79
-66 33 -52 41 -71 36 -98 -6 -39 4 -48 79 -70 84 -24 116 -22 124 10 5 18 1
31 -15 48 l-21 22 33 100 c31 90 36 99 62 104 36 6 54 33 39 57 -16 26 -160
70 -182 57 -28 -18 -27 -60 2 -79 23 -15 24 -19 11 -38 -7 -12 -19 -41 -26
-64 -7 -24 -17 -43 -23 -43 -6 0 -22 20 -36 45 l-24 44 22 39 c12 22 22 55 22
74 0 41 -35 97 -70 115 -25 12 -231 17 -275 6z m233 -95 c35 -35 -7 -78 -75
-78 l-43 0 0 45 0 45 53 0 c29 0 58 -5 65 -12z"/>
<path d="M1303 638 c-4 -7 -8 -40 -8 -73 l0 -60 -60 -6 c-33 -3 -65 -4 -71 -2
-6 2 -14 29 -18 60 -4 31 -12 63 -18 70 -17 21 -104 17 -128 -7 -11 -11 -20
-24 -20 -30 0 -16 39 -50 58 -50 14 0 17 -7 13 -46 -2 -26 0 -89 4 -141 6 -84
9 -95 31 -110 22 -14 26 -14 49 1 23 15 25 23 25 86 l0 70 69 0 c78 0 81 -3
81 -81 0 -38 4 -52 20 -61 11 -7 20 -18 20 -24 0 -16 34 -44 53 -44 9 0 26 13
39 30 25 35 30 36 124 14 l71 -17 9 -41 c8 -36 13 -41 40 -44 57 -6 60 9 30
191 -15 89 -30 170 -32 180 -4 14 1 17 31 17 28 0 36 -4 32 -14 -10 -26 49
-258 69 -273 24 -17 30 -17 54 7 17 17 19 28 14 75 -7 55 -7 55 20 55 37 0 96
26 128 57 30 29 65 26 53 -5 -3 -9 -18 -72 -32 -139 -29 -135 -26 -153 27
-153 34 0 46 14 55 62 l7 37 78 -6 c69 -5 82 -3 113 16 42 26 70 79 65 128 -4
47 11 51 40 10 16 -25 22 -48 22 -88 0 -63 20 -99 55 -99 35 0 55 36 55 99 0
51 4 62 66 152 53 78 65 102 60 122 -6 27 -33 42 -57 32 -8 -4 -36 -38 -64
-78 -27 -39 -54 -72 -60 -74 -5 -1 -36 33 -68 77 -31 44 -63 80 -70 80 -19 0
-57 -29 -57 -44 0 -7 11 -30 25 -50 14 -20 25 -39 25 -41 0 -2 -17 3 -37 12
-21 9 -87 26 -148 38 -105 21 -110 24 -128 56 -32 59 -65 79 -129 79 -62 0
-224 -34 -245 -52 -7 -6 -13 -19 -13 -29 0 -22 -7 -23 -85 -4 -81 20 -102 19
-115 -5 -15 -29 -4 -56 29 -70 l28 -11 -26 -28 c-15 -16 -38 -45 -51 -65 -14
-20 -29 -34 -35 -33 -5 2 -13 64 -17 137 -5 73 -13 139 -19 146 -14 17 -65 18
-76 2z m657 -98 c23 -42 -1 -68 -77 -84 -29 -7 -32 -5 -38 26 -3 18 -9 41 -11
50 -6 19 11 25 73 27 33 1 45 -3 53 -19z m-344 -179 l7 -43 -34 7 c-51 11 -54
20 -24 60 32 41 41 37 51 -24z m648 48 c43 -20 43 -84 0 -95 -13 -4 -40 -3
-59 0 -37 7 -41 16 -29 75 5 26 11 31 35 31 15 0 39 -5 53 -11z"/>
</g>
</svg>
