<svg width="65" height="24" viewBox="0 0 65 24" fill="none" xmlns="http://www.w3.org/2000/svg">
<g clip-path="url(#clip0_4002_345)">
<path d="M46.9811 8.98821H44.6508V17.1788C44.6497 17.3332 44.528 17.458 44.3777 17.4592H42.583C42.4327 17.458 42.3111 17.3332 42.3099 17.1788V8.98821H39.9626C39.8915 8.99118 39.8223 8.9644 39.7708 8.91401C39.7193 8.86362 39.69 8.79392 39.6895 8.72088V7.27034C39.6899 7.1973 39.7193 7.12761 39.7708 7.07721C39.8223 7.02682 39.8915 7.00005 39.9626 7.00302H46.9768C47.1281 6.99556 47.2568 7.11502 47.2649 7.27034V8.72088C47.2568 8.87442 47.1307 8.9932 46.9811 8.98821Z" fill="#FF3366"/>
<path d="M54.4543 17.4045C53.5356 17.5394 52.6081 17.601 51.6802 17.5886C49.9111 17.5886 48.3491 17.124 48.3491 14.5626V9.88882C48.3491 7.32736 49.9261 6.87817 51.693 6.87817C52.6138 6.86522 53.5341 6.92603 54.4457 7.06004C54.6378 7.08852 54.7189 7.15864 54.7189 7.34051V8.6552C54.7178 8.8096 54.5961 8.93448 54.4457 8.93567H51.5649C50.9248 8.93567 50.6879 9.15478 50.6879 9.8932V11.1728H54.3454C54.4958 11.174 54.6174 11.2989 54.6186 11.4533V12.7899C54.6175 12.9443 54.4958 13.0692 54.3454 13.0704H50.6879V14.5626C50.6879 15.2944 50.9205 15.5201 51.5649 15.5201H54.4543C54.6046 15.5213 54.7262 15.6462 54.7274 15.8006V17.1153C54.7295 17.2906 54.6463 17.376 54.4543 17.4045Z" fill="#FF3366"/>
<path d="M64.7952 17.4592H62.6165C62.4646 17.4708 62.3219 17.3831 62.2601 17.2401L60.3695 14.1724L58.6623 17.1831C58.5663 17.3518 58.4703 17.4636 58.3188 17.4636H56.2958C56.2428 17.4733 56.1884 17.4584 56.1471 17.4228C56.1059 17.3873 56.0822 17.3348 56.0824 17.2795C56.0852 17.2451 56.0947 17.2116 56.1102 17.1809L59.0827 12.0996L56.0824 7.27029C56.067 7.24435 56.0575 7.21512 56.0547 7.18484C56.0648 7.07389 56.1599 6.9919 56.2681 7.00078H58.4746C58.6261 7.00078 58.7349 7.14101 58.8181 7.2681L60.5722 10.1166L62.2793 7.2681C62.3412 7.12404 62.4711 7.02297 62.6229 7.00078H64.6523C64.7604 6.9919 64.8555 7.07389 64.8656 7.18484C64.8629 7.21512 64.8534 7.24435 64.8379 7.27029L61.8504 12.1281L64.9595 17.1678C64.9836 17.2106 64.9975 17.2586 65.0001 17.308C64.9745 17.4044 64.904 17.4592 64.7952 17.4592Z" fill="#FF3366"/>
<path d="M36.4078 7.03156C36.3054 7.02922 36.2159 7.10187 36.1944 7.20466L34.2035 14.7685C34.1757 14.9241 34.1352 14.9877 34.0114 14.9877C33.8876 14.9877 33.8471 14.9307 33.8194 14.7685L31.8348 7.20466C31.8133 7.10187 31.7238 7.02922 31.6214 7.03156H29.6625C29.5967 7.0299 29.5339 7.05947 29.4922 7.11171C29.4505 7.16394 29.4346 7.233 29.4491 7.29888C29.4491 7.29888 31.8796 15.9693 31.9052 16.0635C32.2296 17.0977 33.017 17.5973 34.0178 17.5973C34.978 17.6327 35.8428 17.0048 36.1304 16.0635C36.1688 15.9452 38.546 7.29888 38.546 7.29888C38.5597 7.23332 38.5434 7.16492 38.5019 7.11323C38.4602 7.06154 38.3979 7.03225 38.3326 7.03375L36.4078 7.03156Z" fill="#FF3366"/>
<path d="M25.3048 8.97597e-05H4.87897C4.13985 0.00702845 3.45755 0.408555 3.07809 1.05989C2.69863 1.71122 2.67675 2.51842 3.02033 3.19042L5.06462 7.18709H1.36014C0.886861 7.17825 0.44437 7.42725 0.196972 7.84163C-0.0504259 8.25601 -0.0657817 8.77388 0.156607 9.20295L6.72908 21.9555C6.96492 22.4135 7.42808 22.7 7.93261 22.7C8.43713 22.7 8.90029 22.4135 9.13614 21.9555L10.9201 18.5L13.1607 22.8517C13.525 23.5582 14.2398 24 15.0183 24C15.7968 24 16.5116 23.5582 16.8759 22.8517L27.1187 3.07648C27.4578 2.42558 27.4375 1.63926 27.0651 1.00777C26.6928 0.376283 26.0237 -0.0067372 25.3048 8.97597e-05ZM16.1781 8.35498L11.6968 16.9838C11.5429 17.2818 11.2412 17.4681 10.9126 17.4681C10.5841 17.4681 10.2824 17.2818 10.1284 16.9838L5.7048 8.43824C5.56832 8.17526 5.57628 7.85801 5.72579 7.6026C5.87529 7.34719 6.14439 7.19111 6.4346 7.19147H15.4867C15.7594 7.18716 16.0141 7.33128 16.1561 7.57038C16.2982 7.80948 16.3066 8.1079 16.1781 8.35498Z" fill="#FF3366"/>
</g>
<defs>
<clipPath id="clip0_4002_345">
<rect width="65" height="24" fill="white"/>
</clipPath>
</defs>
</svg>
